<?xml version="1.0" encoding="UTF-8"?>
<svg width="161px" height="20px" viewBox="0 0 161 20" version="1.1" xmlns="http://www.w3.org/2000/svg" xmlns:xlink="http://www.w3.org/1999/xlink">
    <!-- Generator: Sketch 64 (93537) - https://sketch.com -->
    <title>BrandStock</title>
    <desc>Created with Sketch.</desc>
    <g id="Symbols" stroke="none" stroke-width="1" fill="none" fill-rule="evenodd">
        <g id="BrandStock" fill="#FFFFFF" fill-rule="nonzero">
            <path d="M7.968,18.792 C10.032,18.792 11.652,18.392 12.828,17.592 C14.004,16.792 14.592,15.64 14.592,14.136 C14.592,13.48 14.4,12.848 14.016,12.24 C13.632,11.632 13,11.112 12.12,10.68 C11.24,10.248 10.048,9.976 8.544,9.864 L8.544,9.864 L8.544,9.816 C9.664,9.608 10.576,9.28 11.28,8.832 C11.984,8.384 12.504,7.872 12.84,7.296 C13.176,6.72 13.344,6.152 13.344,5.592 C13.344,4.488 12.852,3.584 11.868,2.88 C10.884,2.176 9.4,1.824 7.416,1.824 C7.112,1.824 6.6,1.832 5.88,1.848 C5.16,1.864 4.416,1.872 3.648,1.872 C2.976,1.872 2.3,1.864 1.62,1.848 C0.94,1.832 0.4,1.816 0,1.8 L0,1.8 L0,2.28 C0.496,2.296 0.876,2.356 1.14,2.46 C1.404,2.564 1.58,2.756 1.668,3.036 C1.756,3.316 1.8,3.752 1.8,4.344 L1.8,4.344 L1.8,16.248 C1.8,16.824 1.756,17.256 1.668,17.544 C1.58,17.832 1.408,18.024 1.152,18.12 C0.896,18.216 0.512,18.28 0,18.312 L0,18.312 L0,18.792 C0.4,18.76 0.94,18.74 1.62,18.732 C2.3,18.724 2.992,18.72 3.696,18.72 C4.704,18.72 5.572,18.732 6.3,18.756 C7.028,18.78 7.584,18.792 7.968,18.792 Z M5.616,4.344 C5.616,3.512 5.708,2.96 5.892,2.688 C6.076,2.416 6.48,2.28 7.104,2.28 C7.936,2.28 8.536,2.58 8.904,3.18 C9.272,3.78 9.456,4.672 9.456,5.856 C9.456,6.544 9.376,7.188 9.216,7.788 C9.056,8.388 8.776,8.868 8.376,9.228 C7.976,9.588 7.4,9.768 6.648,9.768 L6.648,9.768 L5.616,9.768 L5.616,4.344 Z M7.272,18.24 C6.584,18.24 6.136,18.116 5.928,17.868 C5.72,17.62 5.616,17.08 5.616,16.248 L5.616,16.248 L5.616,10.176 L6.624,10.176 C7.95306667,10.176 8.93020444,10.4686933 9.55541333,11.05408 L9.684,11.184 C10.3,11.856 10.608,12.808 10.608,14.04 C10.608,15.384 10.34,16.42 9.804,17.148 C9.268,17.876 8.424,18.24 7.272,18.24 Z M26.506924,18.792 L26.506924,18.288 C25.754924,18.288 25.190924,18.152 24.814924,17.88 C24.438924,17.608 24.250924,17.088 24.250924,16.32 L24.250924,16.32 L24.250924,9.96 C24.250924,9.528 24.346924,9.088 24.538924,8.64 C24.730924,8.192 24.990924,7.804 25.318924,7.476 C25.646924,7.148 26.018924,6.952 26.434924,6.888 C26.658924,6.808 26.882924,6.8 27.106924,6.864 C26.802924,7.072 26.550924,7.324 26.350924,7.62 C26.150924,7.916 26.050924,8.288 26.050924,8.736 C26.050924,9.2 26.206924,9.572 26.518924,9.852 C26.830924,10.132 27.266924,10.272 27.826924,10.272 C28.386924,10.272 28.838924,10.084 29.182924,9.708 C29.526924,9.332 29.698924,8.848 29.698924,8.256 C29.698924,7.888 29.622924,7.536 29.470924,7.2 C29.318924,6.864 29.082924,6.588 28.762924,6.372 C28.442924,6.156 28.026924,6.048 27.514924,6.048 C27.002924,6.048 26.538924,6.148 26.122924,6.348 C25.706924,6.548 25.338924,6.824 25.018924,7.176 C24.698924,7.528 24.442924,7.92 24.250924,8.352 L24.250924,8.352 L24.250924,6.12 C23.754924,6.232 23.214924,6.316 22.630924,6.372 C22.046924,6.428 21.418924,6.456 20.746924,6.456 C20.266924,6.456 19.770924,6.432 19.258924,6.384 L19.258924,6.384 L19.258924,6.888 C19.850924,6.888 20.254924,7.06 20.470924,7.404 C20.686924,7.748 20.794924,8.28 20.794924,9 L20.794924,9 L20.794924,16.56 C20.794924,17.232 20.678924,17.688 20.446924,17.928 C20.214924,18.168 19.818924,18.288 19.258924,18.288 L19.258924,18.288 L19.258924,18.792 C19.594924,18.776 20.090924,18.756 20.746924,18.732 C21.402924,18.708 22.050924,18.696 22.690924,18.696 C23.458924,18.696 24.194924,18.708 24.898924,18.732 C25.602924,18.756 26.138924,18.776 26.506924,18.792 L26.506924,18.792 Z M42.9818743,18.96 C43.5258743,18.96 44.0178743,18.884 44.4578743,18.732 C44.8978743,18.58 45.2858743,18.36 45.6218743,18.072 L45.6218743,18.072 L45.3818743,17.664 C45.2538743,17.776 45.1178743,17.872 44.9738743,17.952 C44.8298743,18.032 44.6778743,18.072 44.5178743,18.072 C44.3258743,18.072 44.1898743,17.992 44.1098743,17.832 C44.0298743,17.672 43.9898743,17.4 43.9898743,17.016 L43.9898743,17.016 L43.9898743,10.488 C43.9898743,9.672 43.9338743,8.996 43.8218743,8.46 C43.7098743,7.924 43.4698743,7.472 43.1018743,7.104 C42.7018743,6.704 42.2058743,6.428 41.6138743,6.276 C41.0218743,6.124 40.3578743,6.048 39.6218743,6.048 C38.8858743,6.048 38.2018743,6.12 37.5698743,6.264 C36.9378743,6.408 36.3978743,6.608 35.9498743,6.864 C35.5338743,7.136 35.2098743,7.424 34.9778743,7.728 C34.7458743,8.032 34.6298743,8.416 34.6298743,8.88 C34.6298743,9.392 34.7778743,9.828 35.0738743,10.188 C35.3698743,10.548 35.8058743,10.728 36.3818743,10.728 C36.8938743,10.728 37.3378743,10.568 37.7138743,10.248 C38.0898743,9.928 38.2778743,9.496 38.2778743,8.952 C38.2778743,8.536 38.1538743,8.164 37.9058743,7.836 C37.6578743,7.508 37.3098743,7.264 36.8618743,7.104 C37.0698743,6.896 37.3338743,6.748 37.6538743,6.66 C37.9738743,6.572 38.2938743,6.528 38.6138743,6.528 C39.0618743,6.528 39.4258743,6.616 39.7058743,6.792 C39.9858743,6.968 40.1938743,7.22 40.3298743,7.548 C40.4658743,7.876 40.5338743,8.248 40.5338743,8.664 L40.5338743,8.664 L40.5338743,10.536 C40.5338743,10.904 40.3778743,11.208 40.0658743,11.448 C39.7538743,11.688 39.3458743,11.9 38.8418743,12.084 C38.3378743,12.268 37.8098743,12.452 37.2578743,12.636 C36.7058743,12.82 36.1818743,13.052 35.6858743,13.332 C35.1898743,13.612 34.7858743,13.968 34.4738743,14.4 C34.1618743,14.832 34.0058743,15.392 34.0058743,16.08 C34.0058743,16.88 34.2458743,17.56 34.7258743,18.12 C35.2058743,18.68 35.9818743,18.96 37.0538743,18.96 C37.8378743,18.96 38.5218743,18.8 39.1058743,18.48 C39.6898743,18.16 40.1818743,17.672 40.5818743,17.016 C40.5978743,17.528 40.7618743,17.98 41.0738743,18.372 C41.3858743,18.764 42.0218743,18.96 42.9818743,18.96 Z M38.9018743,17.424 C38.4858743,17.424 38.1338743,17.276 37.8458743,16.98 C37.5578743,16.684 37.4138743,16.192 37.4138743,15.504 C37.4138743,14.864 37.5338743,14.352 37.7738743,13.968 C38.0138743,13.584 38.3138743,13.268 38.6738743,13.02 C39.0338743,12.772 39.3858743,12.54 39.7298743,12.324 C40.0738743,12.108 40.3418743,11.84 40.5338743,11.52 L40.5338743,11.52 L40.5338743,16.44 C40.2778743,16.808 40.0178743,17.064 39.7538743,17.208 C39.4898743,17.352 39.2058743,17.424 38.9018743,17.424 Z M63.5896264,18.792 L63.5896264,18.288 C63.0296264,18.288 62.6336264,18.168 62.4016264,17.928 C62.1696264,17.688 62.0536264,17.232 62.0536264,16.56 L62.0536264,16.56 L62.0536264,10.104 C62.0536264,9.288 61.9936264,8.64 61.8736264,8.16 C61.7536264,7.68 61.5656264,7.288 61.3096264,6.984 C61.0696264,6.696 60.7376264,6.468 60.3136264,6.3 C59.8896264,6.132 59.3416264,6.048 58.6696264,6.048 C57.8216264,6.048 57.0536264,6.216 56.3656264,6.552 C55.6776264,6.888 55.1336264,7.464 54.7336264,8.28 L54.7336264,8.28 L54.7336264,6.12 C54.2376264,6.232 53.6976264,6.316 53.1136264,6.372 C52.5296264,6.428 51.9016264,6.456 51.2296264,6.456 C50.7496264,6.456 50.2536264,6.432 49.7416264,6.384 L49.7416264,6.384 L49.7416264,6.888 C50.3336264,6.888 50.7376264,7.06 50.9536264,7.404 C51.1696264,7.748 51.2776264,8.28 51.2776264,9 L51.2776264,9 L51.2776264,16.56 C51.2776264,17.232 51.1616264,17.688 50.9296264,17.928 C50.6976264,18.168 50.3016264,18.288 49.7416264,18.288 L49.7416264,18.288 L49.7416264,18.792 C50.0616264,18.776 50.5416264,18.756 51.1816264,18.732 C51.8216264,18.708 52.4456264,18.696 53.0536264,18.696 C53.6456264,18.696 54.2176264,18.708 54.7696264,18.732 C55.3216264,18.756 55.7416264,18.776 56.0296264,18.792 L56.0296264,18.792 L56.0296264,18.288 C55.5656264,18.288 55.2336264,18.168 55.0336264,17.928 C54.8336264,17.688 54.7336264,17.232 54.7336264,16.56 L54.7336264,16.56 L54.7336264,9.888 C54.7336264,9.088 54.9616264,8.424 55.4176264,7.896 C55.8736264,7.368 56.4376264,7.104 57.1096264,7.104 C57.5256264,7.104 57.8376264,7.188 58.0456264,7.356 C58.2536264,7.524 58.3976264,7.756 58.4776264,8.052 C58.5576264,8.348 58.5976264,8.696 58.5976264,9.096 L58.5976264,9.096 L58.5976264,16.56 C58.5976264,17.232 58.5016264,17.688 58.3096264,17.928 C58.1176264,18.168 57.7816264,18.288 57.3016264,18.288 L57.3016264,18.288 L57.3016264,18.792 C57.6056264,18.776 58.0496264,18.756 58.6336264,18.732 C59.2176264,18.708 59.8136264,18.696 60.4216264,18.696 C61.0136264,18.696 61.6136264,18.708 62.2216264,18.732 C62.8296264,18.756 63.2856264,18.776 63.5896264,18.792 L63.5896264,18.792 Z M73.1333814,19.128 C73.9973814,19.128 74.6973814,18.908 75.2333814,18.468 C75.6621814,18.116 75.9962614,17.63344 76.2356214,17.02032 L76.253,16.971 L76.2533814,19.032 C76.6501814,18.9296 77.0751414,18.8528 77.5282614,18.8016 L77.8733814,18.768 C78.4573814,18.72 79.0853814,18.696 79.7573814,18.696 C80.2533814,18.696 80.7493814,18.72 81.2453814,18.768 L81.2453814,18.768 L81.2453814,18.264 C80.6693814,18.264 80.2693814,18.092 80.0453814,17.748 C79.8213814,17.404 79.7093814,16.872 79.7093814,16.152 L79.7093814,16.152 L79.7093814,-7.10542736e-15 C79.2133814,0.112 78.6693814,0.196 78.0773814,0.252 C77.4853814,0.308 76.8613814,0.336 76.2053814,0.336 C75.7253814,0.336 75.2293814,0.312 74.7173814,0.264 L74.7173814,0.264 L74.7173814,0.768 C75.3093814,0.768 75.7133814,0.94 75.9293814,1.284 C76.1453814,1.628 76.2533814,2.16 76.2533814,2.88 L76.2533814,2.88 L76.253,6.949 L76.1663814,6.861 C76.0088814,6.7155 75.8350689,6.5919375 75.6449439,6.4903125 L75.4493814,6.396 C74.9133814,6.164 74.2933814,6.048 73.5893814,6.048 C72.5653814,6.048 71.6493814,6.288 70.8413814,6.768 C70.0333814,7.248 69.3973814,7.964 68.9333814,8.916 C68.4693814,9.868 68.2373814,11.072 68.2373814,12.528 C68.2373814,14.064 68.4453814,15.316 68.8613814,16.284 C69.2773814,17.252 69.8573814,17.968 70.6013814,18.432 C71.3453814,18.896 72.1893814,19.128 73.1333814,19.128 Z M74.1173814,18.096 C73.6693814,18.096 73.2733814,17.92 72.9293814,17.568 C72.5853814,17.216 72.3213814,16.636 72.1373814,15.828 C71.9533814,15.02 71.8613814,13.936 71.8613814,12.576 C71.8453814,10.592 72.0773814,9.124 72.5573814,8.172 C73.0373814,7.22 73.6853814,6.744 74.5013814,6.744 C74.8853814,6.744 75.2493814,6.828 75.5933814,6.996 C75.8390957,7.116 76.0501161,7.29110204 76.2264426,7.52130612 L76.253,7.56 L76.253,15.974 L76.2341814,16.11936 C76.1557814,16.592 75.9793814,16.99016 75.7049814,17.31384 L75.5813814,17.448 C75.1493814,17.88 74.6613814,18.096 74.1173814,18.096 Z M92.1811364,19.128 C93.2531364,19.128 94.2371364,18.956 95.1331364,18.612 C96.0291364,18.268 96.7531364,17.752 97.3051364,17.064 C97.8571364,16.376 98.1331364,15.504 98.1331364,14.448 C98.1331364,13.584 97.9491364,12.84 97.5811364,12.216 C97.2131364,11.592 96.7251364,11.032 96.1171364,10.536 C95.5091364,10.04 94.8211364,9.544 94.0531364,9.048 C93.1731364,8.44 92.4251364,7.92 91.8091364,7.488 C91.1931364,7.056 90.7251364,6.612 90.4051364,6.156 C90.0851364,5.7 89.9251364,5.152 89.9251364,4.512 C89.9251364,3.744 90.1731364,3.144 90.6691364,2.712 C91.1651364,2.28 91.7971364,2.064 92.5651364,2.064 C93.4131364,2.064 94.1291364,2.316 94.7131364,2.82 C95.2971364,3.324 95.7491364,3.968 96.0691364,4.752 C96.3891364,5.536 96.5811364,6.344 96.6451364,7.176 L96.6451364,7.176 L97.1971364,7.176 C97.1971364,6.056 97.2011364,5.152 97.2091364,4.464 C97.2171364,3.776 97.2331364,3.22 97.2571364,2.796 C97.2811364,2.372 97.3011364,2.008 97.3171364,1.704 L97.3171364,1.704 L96.7651364,1.704 C96.6691364,2.408 96.4931364,2.76 96.2371364,2.76 C96.1251364,2.76 96.0091364,2.732 95.8891364,2.676 C95.7691364,2.62 95.6131364,2.536 95.4211364,2.424 C95.0531364,2.2 94.6131364,1.988 94.1011364,1.788 C93.5891364,1.588 92.8611364,1.488 91.9171364,1.488 C90.9891364,1.488 90.1131364,1.644 89.2891364,1.956 C88.4651364,2.268 87.8011364,2.748 87.2971364,3.396 C86.7931364,4.044 86.5411364,4.872 86.5411364,5.88 C86.5411364,6.76 86.7371364,7.52 87.1291364,8.16 C87.5211364,8.8 88.0451364,9.368 88.7011364,9.864 C89.3571364,10.36 90.0611364,10.856 90.8131364,11.352 C91.8691364,12.04 92.7331364,12.708 93.4051364,13.356 C94.0771364,14.004 94.4131364,14.824 94.4131364,15.816 C94.4131364,16.712 94.1251364,17.384 93.5491364,17.832 C92.9731364,18.28 92.2691364,18.504 91.4371364,18.504 C90.4131364,18.504 89.5931364,18.224 88.9771364,17.664 C88.3611364,17.104 87.9051364,16.364 87.6091364,15.444 C87.3131364,14.524 87.1331364,13.536 87.0691364,12.48 L87.0691364,12.48 L86.5171364,12.48 C86.5171364,13.744 86.5131364,14.788 86.5051364,15.612 C86.4971364,16.436 86.4891364,17.104 86.4811364,17.616 C86.4731364,18.128 86.4531364,18.576 86.4211364,18.96 L86.4211364,18.96 L86.9731364,18.96 C87.0691364,18.256 87.2451364,17.904 87.5011364,17.904 C87.6931364,17.904 87.9651364,18.016 88.3171364,18.24 C88.7171364,18.448 89.2131364,18.648 89.8051364,18.84 C90.3971364,19.032 91.1891364,19.128 92.1811364,19.128 Z M107.796865,19.128 C108.692865,19.128 109.400865,18.896 109.920865,18.432 C110.440865,17.968 110.828865,17.376 111.084865,16.656 L111.084865,16.656 L110.676865,16.44 C110.452865,16.968 110.196865,17.34 109.908865,17.556 C109.620865,17.772 109.332865,17.88 109.044865,17.88 C108.692865,17.88 108.428865,17.78 108.252865,17.58 C108.076865,17.38 107.988865,17.04 107.988865,16.56 L107.988865,16.56 L107.988865,6.864 L110.820865,6.864 L110.820865,6.384 L107.988865,6.384 L107.988865,2.448 C107.492865,2.72 106.960865,2.916 106.392865,3.036 C105.824865,3.156 105.204865,3.216 104.532865,3.216 L104.532865,3.216 L104.532865,6.384 L102.516865,6.384 L102.516865,6.864 L104.532865,6.864 L104.532865,14.976 C104.532865,15.808 104.588865,16.484 104.700865,17.004 C104.812865,17.524 105.044865,17.96 105.396865,18.312 C105.668865,18.584 106.004865,18.788 106.404865,18.924 C106.804865,19.06 107.268865,19.128 107.796865,19.128 Z M121.079839,19.128 C122.247839,19.128 123.271839,18.912 124.151839,18.48 C125.031839,18.048 125.719839,17.356 126.215839,16.404 C126.711839,15.452 126.959839,14.184 126.959839,12.6 C126.959839,11.016 126.711839,9.744 126.215839,8.784 C125.719839,7.824 125.031839,7.128 124.151839,6.696 C123.271839,6.264 122.247839,6.048 121.079839,6.048 C119.943839,6.048 118.931839,6.264 118.043839,6.696 C117.155839,7.128 116.459839,7.824 115.955839,8.784 C115.451839,9.744 115.199839,11.016 115.199839,12.6 C115.199839,14.184 115.451839,15.452 115.955839,16.404 C116.459839,17.356 117.155839,18.048 118.043839,18.48 C118.931839,18.912 119.943839,19.128 121.079839,19.128 Z M121.079839,18.648 C120.439839,18.648 119.903839,18.176 119.471839,17.232 C119.039839,16.288 118.823839,14.744 118.823839,12.6 C118.823839,10.456 119.039839,8.908 119.471839,7.956 C119.903839,7.004 120.439839,6.528 121.079839,6.528 C121.735839,6.528 122.275839,7.004 122.699839,7.956 C123.123839,8.908 123.335839,10.456 123.335839,12.6 C123.335839,14.744 123.123839,16.288 122.699839,17.232 C122.275839,18.176 121.735839,18.648 121.079839,18.648 Z M137.751594,19.128 C138.679594,19.128 139.463594,18.94 140.103594,18.564 C140.743594,18.188 141.263594,17.704 141.663594,17.112 C142.063594,16.52 142.351594,15.928 142.527594,15.336 L142.527594,15.336 L142.119594,15.192 C141.623594,15.992 141.087594,16.516 140.511594,16.764 C139.935594,17.012 139.423594,17.136 138.975594,17.136 C138.447594,17.136 137.939594,16.992 137.451594,16.704 C136.963594,16.416 136.563594,15.92 136.251594,15.216 C135.939594,14.512 135.783594,13.544 135.783594,12.312 C135.783594,11.496 135.851594,10.744 135.987594,10.056 C136.123594,9.368 136.319594,8.768 136.575594,8.256 C136.831594,7.744 137.147594,7.344 137.523594,7.056 C137.899594,6.768 138.335594,6.624 138.831594,6.624 C139.151594,6.624 139.439594,6.68 139.695594,6.792 C139.951594,6.904 140.143594,7.04 140.271594,7.2 C139.855594,7.312 139.487594,7.54 139.167594,7.884 C138.847594,8.228 138.687594,8.656 138.687594,9.168 C138.687594,9.712 138.855594,10.144 139.191594,10.464 C139.527594,10.784 139.975594,10.944 140.535594,10.944 C141.095594,10.944 141.551594,10.764 141.903594,10.404 C142.255594,10.044 142.431594,9.584 142.431594,9.024 C142.431594,8.528 142.315594,8.092 142.083594,7.716 C141.851594,7.34 141.527594,7.024 141.111594,6.768 C140.775594,6.56 140.347594,6.388 139.827594,6.252 C139.307594,6.116 138.735594,6.048 138.111594,6.048 C136.975594,6.048 135.959594,6.296 135.063594,6.792 C134.167594,7.288 133.459594,8.028 132.939594,9.012 C132.419594,9.996 132.159594,11.208 132.159594,12.648 C132.159594,14.152 132.411594,15.38 132.915594,16.332 C133.419594,17.284 134.091594,17.988 134.931594,18.444 C135.771594,18.9 136.711594,19.128 137.751594,19.128 Z M160.648955,18.792 L160.648955,18.288 C160.376955,18.192 160.144955,18.032 159.952955,17.808 C159.760955,17.584 159.576955,17.328 159.400955,17.04 L159.400955,17.04 L155.372,10.304 L156.904955,8.712 C157.314555,8.3152 157.719035,7.97472 158.118395,7.69056 L158.416955,7.488 C158.912955,7.168 159.408955,6.96 159.904955,6.864 L159.904955,6.864 L159.904955,6.384 C159.712955,6.4 159.456955,6.412 159.136955,6.42 C158.816955,6.428 158.476955,6.436 158.116955,6.444 C157.756955,6.452 157.416955,6.456 157.096955,6.456 C156.728955,6.456 156.280955,6.448 155.752955,6.432 C155.224955,6.416 154.736955,6.4 154.288955,6.384 L154.288955,6.384 L154.288955,6.864 C154.848955,6.88 155.300955,7.008 155.644955,7.248 C155.988955,7.488 156.160955,7.808 156.160955,8.208 C156.160955,8.608 155.888955,9.064 155.344955,9.576 L155.344955,9.576 L153.520955,11.352 C153.312955,11.576 153.084955,11.728 152.836955,11.808 C152.588955,11.888 152.296955,11.944 151.960955,11.976 L152.08,11.963 L152.080955,-7.10542736e-15 C151.684155,0.0896 151.256635,0.16128 150.798395,0.21504 L150.448955,0.252 C149.856955,0.308 149.232955,0.336 148.576955,0.336 C148.096955,0.336 147.600955,0.312 147.088955,0.264 L147.088955,0.264 L147.088955,0.768 C147.680955,0.768 148.084955,0.94 148.300955,1.284 C148.516955,1.628 148.624955,2.16 148.624955,2.88 L148.624955,2.88 L148.624955,16.56 C148.624955,17.232 148.508955,17.688 148.276955,17.928 C148.044955,18.168 147.648955,18.288 147.088955,18.288 L147.088955,18.288 L147.088955,18.792 C147.408955,18.776 147.884955,18.756 148.516955,18.732 C149.148955,18.708 149.776955,18.696 150.400955,18.696 C151.008955,18.696 151.604955,18.708 152.188955,18.732 C152.772955,18.756 153.216955,18.776 153.520955,18.792 L153.520955,18.792 L153.520955,18.288 C152.992955,18.288 152.620955,18.168 152.404955,17.928 C152.188955,17.688 152.080955,17.232 152.080955,16.56 L152.080955,16.56 L152.08,12.442 L152.136155,12.44592 C152.304155,12.46416 152.450555,12.49536 152.575355,12.53952 L152.692955,12.588 C152.876955,12.676 153.064955,12.872 153.256955,13.176 L153.256955,13.176 L155.632955,17.472 C155.776955,17.712 155.792955,17.908 155.680955,18.06 C155.568955,18.212 155.352955,18.288 155.032955,18.288 L155.032955,18.288 L155.032955,18.792 C155.320955,18.776 155.760955,18.756 156.352955,18.732 C156.944955,18.708 157.536955,18.696 158.128955,18.696 C158.608955,18.696 159.088955,18.708 159.568955,18.732 C160.048955,18.756 160.408955,18.776 160.648955,18.792 L160.648955,18.792 Z"></path>
        </g>
    </g>
</svg>